<svg xmlns="http://www.w3.org/2000/svg" viewBox="0 0 225 141.53"><defs><style>.cls-1{fill:#999;}</style></defs><g id="Layer_2" data-name="Layer 2"><g id="Layer_1-2" data-name="Layer 1"><path class="cls-1" d="M225,106.52c-2.08,8.48-5,16.48-11.43,22.84a40,40,0,0,1-29.13,12.14q-70,.08-139.94,0C22.36,141.51,5,127.09.77,105.29A8.33,8.33,0,0,0,0,103.52v-11c2.7-12.25,8-23.2,19.09-29.65,6.5-3.77,10-8.13,12.52-15.4C37.76,29.79,57.87,23,74.33,31.83c1,.55,2,1.13,3.32,1.87C85.43,18.84,96.78,8.08,112.76,2.85a57,57,0,0,1,34.86-.24c25.66,7.73,40.78,29.14,42,58,7.31,3.72,14.47,6.5,20.65,10.71,8.64,5.9,12.56,15.17,14.71,25.18Zm-143.69-59-1.65.65c-1.56-2-2.84-4.23-4.72-5.8-7.09-5.93-15.11-7.54-23.72-3.78S37.75,49.13,37.77,58.46c0,4.47-1.58,5.82-5.43,7.08a34.37,34.37,0,0,0,10.86,67q70.95.09,141.9,0a31,31,0,0,0,7-61.19c-3.83-.88-7.86-.87-12.49-1.34,2.65-13.57.54-26.43-7-38.08A49,49,0,0,0,140.08,9.83a48.31,48.31,0,0,0-31.15,3.95C94.58,20.67,85.89,32.42,81.31,47.55Z"/><path class="cls-1" d="M157.94,114.55c-1.07,1.45-1.88,3.6-2.93,3.72-1.87.22-4.47-.17-5.74-1.39-7-6.68-14.9-11.74-24.24-14.19C107.35,98.06,92,103,78.34,114.58c-.88.75-1.71,1.57-2.53,2.4-2.18,2.21-5.14,3-6.83.48-1-1.51-.5-5.41.83-6.81A56.92,56.92,0,0,1,99.18,93.74c21.5-4.78,40,1.47,55.77,16.47C156.08,111.29,156.77,112.83,157.94,114.55Z"/><path class="cls-1" d="M94.25,69.53a8.75,8.75,0,1,1-8.74-9A8.87,8.87,0,0,1,94.25,69.53Z"/><path class="cls-1" d="M148.25,69.61a8.75,8.75,0,1,1-8.66-9.08A8.87,8.87,0,0,1,148.25,69.61Z"/></g></g></svg>