<svg xmlns="http://www.w3.org/2000/svg" viewBox="0 0 138.07 123.56"><defs><style>.cls-1{fill:#eab543;}</style></defs><g id="Layer_2" data-name="Layer 2"><g id="Layer_1-2" data-name="Layer 1"><path class="cls-1" d="M68.76,14.36C77.21,4.78,87.2.17,99.14.07c25.83-.2,44.74,25.47,37.29,50.57-3.28,11.07-9.56,20.47-16.84,29.22-13.62,16.37-29.8,29.92-47,42.29-2.34,1.68-4.22,2-6.7.21-19.53-14.09-38.07-29.29-52.18-49A90.47,90.47,0,0,1,2.26,51.86c-6.4-17.69,1.22-37.11,17.33-46.6C35.1-3.87,54.68-.91,67.52,12.53A16.33,16.33,0,0,1,68.76,14.36ZM5.52,40.45C5.77,51,11.31,60.83,18.07,70c13.36,18.19,30.32,32.66,48.5,45.74a5.52,5.52,0,0,0,5.09-.08C89.41,102.87,106.3,89,119.08,71A87.76,87.76,0,0,0,131.3,47.25c4.88-15.33-4.19-32.44-19.24-39a32.37,32.37,0,0,0-40,12c-2,3.08-3.66,3.57-5.92.3C57.46,7.85,43.09,2.65,29.15,7,15.61,11.26,5.5,25,5.52,40.45Z"/></g></g></svg>