<svg xmlns="http://www.w3.org/2000/svg" viewBox="0 0 138.07 123.56"><defs><style>.cls-1{fill:#eab543;}</style></defs><g id="Layer_2" data-name="Layer 2"><g id="Layer_1-2" data-name="Layer 1"><path class="cls-1" d="M136.43,50.65c-3.28,11.07-9.57,20.46-16.85,29.21-13.62,16.37-29.79,29.93-47,42.29-2.34,1.68-4.23,2-6.71.21-19.52-14.09-38.06-29.29-52.17-49A90.11,90.11,0,0,1,2.26,51.86C-4.14,34.18,3.48,14.75,19.59,5.27,35.1-3.87,54.67-.9,67.52,12.53a17.88,17.88,0,0,1,1.24,1.83C77.21,4.79,87.2.17,99.14.08,125-.13,143.88,25.54,136.43,50.65Z"/></g></g></svg>